{
  "accessors": [
    {
      "bufferView": 2,
      "componentType": 5126,
      "count": 15296,
      "max": [
        0.99359530210495,
        0.9935951232910156,
        44.03849411010742
      ],
      "min": [
        -0.9935950636863708,
        -0.9935950636863708,
        -1.0
      ],
      "type": "VEC3"
    },
    {
      "bufferView": 2,
      "byteOffset": 183552,
      "componentType": 5126,
      "count": 15296,
      "max": [
        0.9987936019897461,
        0.9987936019897461,
        0.9913506507873535
      ],
      "min": [
        -0.9987936019897461,
        -0.9987936019897461,
        -0.9999641180038452
      ],
      "type": "VEC3"
    },
    {
      "bufferView": 1,
      "componentType": 5126,
      "count": 15296,
      "max": [
        1.0000001192092896,
        1.0000003576278687
      ],
      "min": [
        0.0,
        2.220446049250313e-16
      ],
      "type": "VEC2"
    },
    {
      "bufferView": 0,
      "componentType": 5125,
      "count": 22944,
      "type": "SCALAR"
    },
    {
      "bufferView": 2,
      "byteOffset": 367104,
      "componentType": 5126,
      "count": 6144,
      "max": [
        0.7366675138473511,
        0.736666738986969,
        40.05723571777344
      ],
      "min": [
        -0.7366659641265869,
        -0.736666738986969,
        38.99971008300781
      ],
      "type": "VEC3"
    },
    {
      "bufferView": 2,
      "byteOffset": 440832,
      "componentType": 5126,
      "count": 6144,
      "max": [
        0.9987934827804565,
        0.9987934827804565,
        0.9996607899665833
      ],
      "min": [
        -0.9987934827804565,
        -0.9987935423851013,
        0.00041536602657288313
      ],
      "type": "VEC3"
    },
    {
      "bufferView": 1,
      "byteOffset": 122368,
      "componentType": 5126,
      "count": 6144,
      "max": [
        0.42680010199546814,
        0.42680010199546814
      ],
      "min": [
        0.07320000231266022,
        0.07320000976324081
      ],
      "type": "VEC2"
    },
    {
      "bufferView": 0,
      "byteOffset": 91776,
      "componentType": 5125,
      "count": 9216,
      "type": "SCALAR"
    },
    {
      "bufferView": 2,
      "byteOffset": 514560,
      "componentType": 5126,
      "count": 3072,
      "max": [
        0.600233256816864,
        0.617584228515625,
        43.87639236450195
      ],
      "min": [
        -0.6145839095115662,
        -0.5997316241264343,
        40.057228088378906
      ],
      "type": "VEC3"
    },
    {
      "bufferView": 2,
      "byteOffset": 551424,
      "componentType": 5126,
      "count": 3072,
      "max": [
        0.9986286759376526,
        0.9997827410697937,
        0.26730549335479736
      ],
      "min": [
        -0.999859094619751,
        -0.9987378120422363,
        -0.38910385966300964
      ],
      "type": "VEC3"
    },
    {
      "bufferView": 1,
      "byteOffset": 171520,
      "componentType": 5126,
      "count": 3072,
      "max": [
        0.3987117111682892,
        0.397868275642395
      ],
      "min": [
        0.10304127633571625,
        0.10213179886341095
      ],
      "type": "VEC2"
    },
    {
      "bufferView": 0,
      "byteOffset": 128640,
      "componentType": 5125,
      "count": 4608,
      "type": "SCALAR"
    },
    {
      "bufferView": 2,
      "byteOffset": 588288,
      "componentType": 5126,
      "count": 5952,
      "max": [
        0.7173950672149658,
        0.25595805048942566,
        -0.8332450985908508
      ],
      "min": [
        -0.7632496953010559,
        -0.22054986655712128,
        -2.530305862426758
      ],
      "type": "VEC3"
    },
    {
      "bufferView": 2,
      "byteOffset": 659712,
      "componentType": 5126,
      "count": 5952,
      "max": [
        0.9976590871810913,
        0.9924440383911133,
        0.9913501143455505
      ],
      "min": [
        -0.9976590275764465,
        -0.9924439787864685,
        -0.9913511276245117
      ],
      "type": "VEC3"
    },
    {
      "bufferView": 1,
      "byteOffset": 196096,
      "componentType": 5126,
      "count": 5952,
      "max": [
        1.0000001192092896,
        1.0000001192092896
      ],
      "min": [
        8.881784197001252e-16,
        2.220446049250313e-16
      ],
      "type": "VEC2"
    },
    {
      "bufferView": 0,
      "byteOffset": 147072,
      "componentType": 5125,
      "count": 8928,
      "type": "SCALAR"
    }
  ],
  "asset": {
    "extras": {
      "author": "Kitimii (https://sketchfab.com/Mikiti)",
      "license": "CC-BY-4.0 (http://creativecommons.org/licenses/by/4.0/)",
      "source": "https://sketchfab.com/3d-models/maobi-pinsel-251179665151470299b37f4ed8dfd0f8",
      "title": "Maobí_Pinsel"
    },
    "generator": "Sketchfab-17.1.0",
    "version": "2.0"
  },
  "bufferViews": [
    {
      "buffer": 0,
      "byteLength": 182784,
      "name": "floatBufferViews",
      "target": 34963
    },
    {
      "buffer": 0,
      "byteLength": 243712,
      "byteOffset": 182784,
      "byteStride": 8,
      "name": "floatBufferViews",
      "target": 34962
    },
    {
      "buffer": 0,
      "byteLength": 731136,
      "byteOffset": 426496,
      "byteStride": 12,
      "name": "floatBufferViews",
      "target": 34962
    }
  ],
  "buffers": [
    {
      "byteLength": 1157632,
      "uri": "scene.bin"
    }
  ],
  "materials": [
    {
      "doubleSided": true,
      "name": "Holzgriff",
      "pbrMetallicRoughness": {
        "baseColorFactor": [
          0.8,
          0.8,
          0.8,
          1.0
        ],
        "metallicFactor": 0.0,
        "roughnessFactor": 0.8211145618000169
      }
    },
    {
      "doubleSided": true,
      "name": "kunststoff",
      "pbrMetallicRoughness": {
        "baseColorFactor": [
          0.8,
          0.8,
          0.8,
          1.0
        ],
        "metallicFactor": 0.0,
        "roughnessFactor": 0.8211145618000169
      }
    },
    {
      "doubleSided": true,
      "name": "Pinsel",
      "pbrMetallicRoughness": {
        "baseColorFactor": [
          0.0616541,
          0.800007,
          0.12109,
          1.0
        ],
        "metallicFactor": 0.0,
        "roughnessFactor": 0.8671741261810418
      }
    },
    {
      "doubleSided": true,
      "name": "schlaufe",
      "pbrMetallicRoughness": {
        "baseColorFactor": [
          0.8,
          0.8,
          0.8,
          1.0
        ],
        "metallicFactor": 0.0,
        "roughnessFactor": 0.8040408205773457
      }
    }
  ],
  "meshes": [
    {
      "name": "Cylinder_Holzgriff_0",
      "primitives": [
        {
          "attributes": {
            "NORMAL": 1,
            "POSITION": 0,
            "TEXCOORD_0": 2
          },
          "indices": 3,
          "material": 0,
          "mode": 4
        }
      ]
    },
    {
      "name": "Cylinder_kunststoff_0",
      "primitives": [
        {
          "attributes": {
            "NORMAL": 5,
            "POSITION": 4,
            "TEXCOORD_0": 6
          },
          "indices": 7,
          "material": 1,
          "mode": 4
        }
      ]
    },
    {
      "name": "Cylinder_Pinsel_0",
      "primitives": [
        {
          "attributes": {
            "NORMAL": 9,
            "POSITION": 8,
            "TEXCOORD_0": 10
          },
          "indices": 11,
          "material": 2,
          "mode": 4
        }
      ]
    },
    {
      "name": "Cylinder_schlaufe_0",
      "primitives": [
        {
          "attributes": {
            "NORMAL": 13,
            "POSITION": 12,
            "TEXCOORD_0": 14
          },
          "indices": 15,
          "material": 3,
          "mode": 4
        }
      ]
    }
  ],
  "nodes": [
    {
      "children": [
        1
      ],
      "matrix": [
        1.0,
        0.0,
        0.0,
        0.0,
        0.0,
        2.220446049250313e-16,
        -1.0,
        0.0,
        0.0,
        1.0,
        2.220446049250313e-16,
        0.0,
        0.0,
        0.0,
        0.0,
        1.0
      ],
      "name": "Sketchfab_model"
    },
    {
      "children": [
        2
      ],
      "matrix": [
        0.009999999776482582,
        0.0,
        0.0,
        0.0,
        0.0,
        0.0,
        0.009999999776482582,
        0.0,
        0.0,
        -0.009999999776482582,
        0.0,
        0.0,
        0.0,
        0.0,
        0.0,
        1.0
      ],
      "name": "bc944c60eaf94e15b7bc9754588f5d92.fbx"
    },
    {
      "children": [
        3,
        5,
        10
      ],
      "name": "RootNode"
    },
    {
      "children": [
        4
      ],
      "matrix": [
        -65.1558127516791,
        -44.52713915455176,
        -61.417049289096546,
        0.0,
        -32.401349332924404,
        89.53957282709818,
        -30.5420854760369,
        0.0,
        68.59207001076241,
        8.666908837178815e-06,
        -72.76761921184274,
        0.0,
        443.083251953125,
        1436.375,
        2505.47607421875,
        1.0
      ],
      "name": "Camera"
    },
    {
      "name": "Object_4"
    },
    {
      "children": [
        6,
        7,
        8,
        9
      ],
      "matrix": [
        100.0,
        0.0,
        0.0,
        0.0,
        -0.0,
        -1.629206793918314e-05,
        -99.99999999999868,
        0.0,
        0.0,
        99.99999999999868,
        -1.629206793918314e-05,
        0.0,
        -10.054052352905273,
        97.20081329345703,
        -3.846365213394165,
        1.0
      ],
      "name": "Cylinder"
    },
    {
      "mesh": 0,
      "name": "Cylinder_Holzgriff_0"
    },
    {
      "mesh": 1,
      "name": "Cylinder_kunststoff_0"
    },
    {
      "mesh": 2,
      "name": "Cylinder_Pinsel_0"
    },
    {
      "mesh": 3,
      "name": "Cylinder_schlaufe_0"
    },
    {
      "children": [
        11
      ],
      "matrix": [
        -29.086477364379697,
        -5.518905590722295,
        -95.51711910171437,
        0.0,
        56.63932069164076,
        79.46722539115298,
        -21.839126361216156,
        0.0,
        77.11007920637729,
        -60.452475336912016,
        -19.988344364310564,
        0.0,
        827.1679077148438,
        4112.27880859375,
        271.982177734375,
        1.0
      ],
      "name": "Light"
    },
    {
      "children": [
        12
      ],
      "matrix": [
        1.0,
        0.0,
        0.0,
        0.0,
        0.0,
        2.220446049250313e-16,
        1.0,
        0.0,
        0.0,
        -1.0,
        2.220446049250313e-16,
        0.0,
        0.0,
        0.0,
        0.0,
        1.0
      ],
      "name": "Object_11"
    },
    {
      "name": "Object_12"
    }
  ],
  "scene": 0,
  "scenes": [
    {
      "name": "Sketchfab_Scene",
      "nodes": [
        0
      ]
    }
  ]
}
