{
	"asset":{
		"generator":"Khronos glTF Blender I/O v4.5.48",
		"version":"2.0"
	},
	"scene":0,
	"scenes":[
		{
			"name":"Scene",
			"nodes":[
				0
			]
		}
	],
	"nodes":[
		{
			"mesh":0,
			"name":"Cylinder",
			"translation":[
				-0.10054051876068115,
				0.9720081090927124,
				-0.03846365213394165
			]
		}
	],
	"materials":[
		{
			"doubleSided":true,
			"name":"Holzgriff",
			"pbrMetallicRoughness":{
				"baseColorTexture":{
					"index":0
				},
				"metallicFactor":0,
				"roughnessFactor":0.5
			}
		},
		{
			"doubleSided":true,
			"name":"kunststoff",
			"pbrMetallicRoughness":{
				"baseColorFactor":[
					0.800000011920929,
					0.800000011920929,
					0.800000011920929,
					1
				],
				"metallicFactor":0,
				"roughnessFactor":0.5
			}
		},
		{
			"doubleSided":true,
			"name":"schlaufe"
		},
		{
			"doubleSided":true,
			"name":"Pinsel",
			"pbrMetallicRoughness":{
				"baseColorTexture":{
					"index":1
				},
				"metallicFactor":0,
				"roughnessFactor":0.5
			}
		}
	],
	"meshes":[
		{
			"name":"Cylinder.001",
			"primitives":[
				{
					"attributes":{
						"POSITION":0,
						"NORMAL":1,
						"TEXCOORD_0":2
					},
					"indices":3,
					"material":0
				},
				{
					"attributes":{
						"POSITION":4,
						"NORMAL":5,
						"TEXCOORD_0":6
					},
					"indices":7,
					"material":1
				},
				{
					"attributes":{
						"POSITION":8,
						"NORMAL":9,
						"TEXCOORD_0":10
					},
					"indices":11,
					"material":2
				},
				{
					"attributes":{
						"POSITION":12,
						"NORMAL":13,
						"TEXCOORD_0":14
					},
					"indices":15,
					"material":3
				}
			]
		}
	],
	"textures":[
		{
			"sampler":0,
			"source":0
		},
		{
			"sampler":0,
			"source":1
		}
	],
	"images":[
		{
			"mimeType":"image/jpeg",
			"name":"fine_grained_wood_col_4k",
			"uri":"fine_grained_wood_col_4k.jpg"
		},
		{
			"mimeType":"image/png",
			"name":"Pinsel",
			"uri":"Pinsel.png"
		}
	],
	"accessors":[
		{
			"bufferView":0,
			"componentType":5126,
			"count":2918,
			"max":[
				1.0000007152557373,
				44.05655288696289,
				1
			],
			"min":[
				-1,
				-1,
				-1
			],
			"type":"VEC3"
		},
		{
			"bufferView":1,
			"componentType":5126,
			"count":2918,
			"type":"VEC3"
		},
		{
			"bufferView":2,
			"componentType":5126,
			"count":2918,
			"type":"VEC2"
		},
		{
			"bufferView":3,
			"componentType":5123,
			"count":5820,
			"type":"SCALAR"
		},
		{
			"bufferView":4,
			"componentType":5126,
			"count":1442,
			"max":[
				0.7359483242034912,
				40.05461883544922,
				0.7359466552734375
			],
			"min":[
				-0.7359459400177002,
				38.88779067993164,
				-0.7359466552734375
			],
			"type":"VEC3"
		},
		{
			"bufferView":5,
			"componentType":5126,
			"count":1442,
			"type":"VEC3"
		},
		{
			"bufferView":6,
			"componentType":5126,
			"count":1442,
			"type":"VEC2"
		},
		{
			"bufferView":7,
			"componentType":5123,
			"count":2304,
			"type":"SCALAR"
		},
		{
			"bufferView":8,
			"componentType":5126,
			"count":1488,
			"max":[
				0.7260220050811768,
				-0.8317485451698303,
				0.23116673529148102
			],
			"min":[
				-0.7718766927719116,
				-2.5443310737609863,
				-0.2665737271308899
			],
			"type":"VEC3"
		},
		{
			"bufferView":9,
			"componentType":5126,
			"count":1488,
			"type":"VEC3"
		},
		{
			"bufferView":10,
			"componentType":5126,
			"count":1488,
			"type":"VEC2"
		},
		{
			"bufferView":11,
			"componentType":5123,
			"count":2232,
			"type":"SCALAR"
		},
		{
			"bufferView":12,
			"componentType":5126,
			"count":768,
			"max":[
				0.6121366620063782,
				44.05655288696289,
				0.612086296081543
			],
			"min":[
				-0.633415699005127,
				40.05461883544922,
				-0.6438019275665283
			],
			"type":"VEC3"
		},
		{
			"bufferView":13,
			"componentType":5126,
			"count":768,
			"type":"VEC3"
		},
		{
			"bufferView":14,
			"componentType":5126,
			"count":768,
			"type":"VEC2"
		},
		{
			"bufferView":15,
			"componentType":5123,
			"count":1152,
			"type":"SCALAR"
		}
	],
	"bufferViews":[
		{
			"buffer":0,
			"byteLength":35016,
			"byteOffset":0,
			"target":34962
		},
		{
			"buffer":0,
			"byteLength":35016,
			"byteOffset":35016,
			"target":34962
		},
		{
			"buffer":0,
			"byteLength":23344,
			"byteOffset":70032,
			"target":34962
		},
		{
			"buffer":0,
			"byteLength":11640,
			"byteOffset":93376,
			"target":34963
		},
		{
			"buffer":0,
			"byteLength":17304,
			"byteOffset":105016,
			"target":34962
		},
		{
			"buffer":0,
			"byteLength":17304,
			"byteOffset":122320,
			"target":34962
		},
		{
			"buffer":0,
			"byteLength":11536,
			"byteOffset":139624,
			"target":34962
		},
		{
			"buffer":0,
			"byteLength":4608,
			"byteOffset":151160,
			"target":34963
		},
		{
			"buffer":0,
			"byteLength":17856,
			"byteOffset":155768,
			"target":34962
		},
		{
			"buffer":0,
			"byteLength":17856,
			"byteOffset":173624,
			"target":34962
		},
		{
			"buffer":0,
			"byteLength":11904,
			"byteOffset":191480,
			"target":34962
		},
		{
			"buffer":0,
			"byteLength":4464,
			"byteOffset":203384,
			"target":34963
		},
		{
			"buffer":0,
			"byteLength":9216,
			"byteOffset":207848,
			"target":34962
		},
		{
			"buffer":0,
			"byteLength":9216,
			"byteOffset":217064,
			"target":34962
		},
		{
			"buffer":0,
			"byteLength":6144,
			"byteOffset":226280,
			"target":34962
		},
		{
			"buffer":0,
			"byteLength":2304,
			"byteOffset":232424,
			"target":34963
		}
	],
	"samplers":[
		{
			"magFilter":9729,
			"minFilter":9987
		}
	],
	"buffers":[
		{
			"byteLength":234728,
			"uri":"Maobi%CC%81_Pinsel.bin"
		}
	]
}
