{
  "accessors": [
    {
      "bufferView": 2,
      "componentType": 5126,
      "count": 2064,
      "max": [
        0.3623282313346863,
        2.2341396808624268,
        0.35871273279190063
      ],
      "min": [
        -0.3135565519332886,
        -7.514477252960205,
        -0.0738755464553833
      ],
      "type": "VEC3"
    },
    {
      "bufferView": 2,
      "byteOffset": 24768,
      "componentType": 5126,
      "count": 2064,
      "max": [
        0.9975401163101196,
        0.6012576222419739,
        0.9999852776527405
      ],
      "min": [
        -0.9966503381729126,
        -0.40233224630355835,
        -0.9999769330024719
      ],
      "type": "VEC3"
    },
    {
      "bufferView": 1,
      "componentType": 5126,
      "count": 2064,
      "max": [
        0.8735747933387756,
        0.8203381896018982
      ],
      "min": [
        0.1929655373096466,
        0.2830451726913452
      ],
      "type": "VEC2"
    },
    {
      "bufferView": 0,
      "componentType": 5125,
      "count": 3096,
      "type": "SCALAR"
    },
    {
      "bufferView": 2,
      "byteOffset": 49536,
      "componentType": 5126,
      "count": 2704,
      "max": [
        1.1074625253677368,
        -0.048419564962387085,
        0.2970786988735199
      ],
      "min": [
        -1.1465941667556763,
        -8.245248794555664,
        -0.009488196112215519
      ],
      "type": "VEC3"
    },
    {
      "bufferView": 2,
      "byteOffset": 81984,
      "componentType": 5126,
      "count": 2704,
      "max": [
        0.9964997172355652,
        0.8608473539352417,
        0.9999860525131226
      ],
      "min": [
        -0.9925026893615723,
        -0.8048784136772156,
        -0.9999925494194031
      ],
      "type": "VEC3"
    },
    {
      "bufferView": 1,
      "byteOffset": 16512,
      "componentType": 5126,
      "count": 2704,
      "max": [
        0.7952772378921509,
        0.7954705953598022
      ],
      "min": [
        0.10163594037294388,
        0.12522506713867188
      ],
      "type": "VEC2"
    },
    {
      "bufferView": 0,
      "byteOffset": 12384,
      "componentType": 5125,
      "count": 4056,
      "type": "SCALAR"
    },
    {
      "bufferView": 2,
      "byteOffset": 114432,
      "componentType": 5126,
      "count": 64,
      "max": [
        0.08864133805036545,
        -7.49434757232666,
        0.2969112992286682
      ],
      "min": [
        -0.3976725935935974,
        -8.131204605102539,
        0.05817307531833649
      ],
      "type": "VEC3"
    },
    {
      "bufferView": 2,
      "byteOffset": 115200,
      "componentType": 5126,
      "count": 64,
      "max": [
        0.06054592505097389,
        0.20052894949913025,
        0.999951183795929
      ],
      "min": [
        -0.09007763117551804,
        -0.17962510883808136,
        -0.99980628490448
      ],
      "type": "VEC3"
    },
    {
      "bufferView": 1,
      "byteOffset": 38144,
      "componentType": 5126,
      "count": 64,
      "max": [
        0.19920681416988373,
        0.30128127336502075
      ],
      "min": [
        0.1137344166636467,
        0.16708306968212128
      ],
      "type": "VEC2"
    },
    {
      "bufferView": 0,
      "byteOffset": 28608,
      "componentType": 5125,
      "count": 96,
      "type": "SCALAR"
    }
  ],
  "asset": {
    "extras": {
      "author": "Kitimii (https://sketchfab.com/Mikiti)",
      "license": "CC-BY-4.0 (http://creativecommons.org/licenses/by/4.0/)",
      "source": "https://sketchfab.com/3d-models/Feather quill-7c3dd57f66ab41af873a1cca082477ac",
      "title": "Feather quill"
    },
    "generator": "Sketchfab-17.1.0",
    "version": "2.0"
  },
  "bufferViews": [
    {
      "buffer": 0,
      "byteLength": 28992,
      "name": "floatBufferViews",
      "target": 34963
    },
    {
      "buffer": 0,
      "byteLength": 38656,
      "byteOffset": 28992,
      "byteStride": 8,
      "name": "floatBufferViews",
      "target": 34962
    },
    {
      "buffer": 0,
      "byteLength": 115968,
      "byteOffset": 67648,
      "byteStride": 12,
      "name": "floatBufferViews",
      "target": 34962
    }
  ],
  "buffers": [
    {
      "byteLength": 183616,
      "uri": "scene.bin"
    }
  ],
  "materials": [
    {
      "doubleSided": true,
      "name": "Federstiel",
      "pbrMetallicRoughness": {
        "baseColorFactor": [
          0.800962,
          0.7011,
          0.61962,
          1.0
        ],
        "metallicFactor": 0.0,
        "roughnessFactor": 0.8397974005242272
      }
    },
    {
      "doubleSided": true,
      "name": "Feder_Feder",
      "pbrMetallicRoughness": {
        "baseColorFactor": [
          0.148079,
          0.117313,
          0.0946125,
          1.0
        ],
        "metallicFactor": 0.0,
        "roughnessFactor": 0.9726719230520326
      }
    },
    {
      "doubleSided": true,
      "name": "Material.002",
      "pbrMetallicRoughness": {
        "baseColorFactor": [
          0.8,
          0.8,
          0.8,
          1.0
        ],
        "metallicFactor": 0.0,
        "roughnessFactor": 0.8211145618000169
      }
    }
  ],
  "meshes": [
    {
      "name": "Plane_Federstiel_0",
      "primitives": [
        {
          "attributes": {
            "NORMAL": 1,
            "POSITION": 0,
            "TEXCOORD_0": 2
          },
          "indices": 3,
          "material": 0,
          "mode": 4
        }
      ]
    },
    {
      "name": "Plane_Feder Feder_0",
      "primitives": [
        {
          "attributes": {
            "NORMAL": 5,
            "POSITION": 4,
            "TEXCOORD_0": 6
          },
          "indices": 7,
          "material": 1,
          "mode": 4
        }
      ]
    },
    {
      "name": "Plane_Material.002_0",
      "primitives": [
        {
          "attributes": {
            "NORMAL": 9,
            "POSITION": 8,
            "TEXCOORD_0": 10
          },
          "indices": 11,
          "material": 2,
          "mode": 4
        }
      ]
    }
  ],
  "nodes": [
    {
      "children": [
        1
      ],
      "matrix": [
        1.0,
        0.0,
        0.0,
        0.0,
        0.0,
        2.220446049250313e-16,
        -1.0,
        0.0,
        0.0,
        1.0,
        2.220446049250313e-16,
        0.0,
        0.0,
        0.0,
        0.0,
        1.0
      ],
      "name": "Sketchfab_model"
    },
    {
      "children": [
        2
      ],
      "matrix": [
        0.009999999776482582,
        0.0,
        0.0,
        0.0,
        0.0,
        0.0,
        0.009999999776482582,
        0.0,
        0.0,
        -0.009999999776482582,
        0.0,
        0.0,
        0.0,
        0.0,
        0.0,
        1.0
      ],
      "name": "d96b41bb65514ce1adc9254fc417f6d2.fbx"
    },
    {
      "children": [
        3,
        5,
        8
      ],
      "name": "RootNode"
    },
    {
      "children": [
        4
      ],
      "matrix": [
        -65.1558127516791,
        -44.52713915455176,
        -61.417049289096546,
        0.0,
        -32.401349332924404,
        89.53957282709818,
        -30.5420854760369,
        0.0,
        68.59207001076241,
        8.666908837178815e-06,
        -72.76761921184274,
        0.0,
        735.88916015625,
        495.8309326171875,
        692.5791015625,
        1.0
      ],
      "name": "Camera"
    },
    {
      "name": "Object_4"
    },
    {
      "children": [
        6
      ],
      "matrix": [
        -29.086477364379697,
        -5.518905590722295,
        -95.51711910171437,
        0.0,
        56.63932069164076,
        79.46722539115298,
        -21.839126361216156,
        0.0,
        77.11007920637729,
        -60.452475336912016,
        -19.988344364310564,
        0.0,
        407.6245422363281,
        590.38623046875,
        -100.54539489746094,
        1.0
      ],
      "name": "Light"
    },
    {
      "children": [
        7
      ],
      "matrix": [
        1.0,
        0.0,
        0.0,
        0.0,
        0.0,
        2.220446049250313e-16,
        1.0,
        0.0,
        0.0,
        -1.0,
        2.220446049250313e-16,
        0.0,
        0.0,
        0.0,
        0.0,
        1.0
      ],
      "name": "Object_6"
    },
    {
      "name": "Object_7"
    },
    {
      "children": [
        9,
        10,
        11
      ],
      "matrix": [
        100.0,
        3.873279504852206e-15,
        -3.404318679629098e-16,
        0.0,
        3.870085249162894e-15,
        -99.99600632359522,
        -0.8928569049148191,
        0.0,
        -3.7500111572144813e-16,
        0.8928569049148191,
        -99.99600632359522,
        0.0,
        0.0,
        0.0,
        0.0,
        1.0
      ],
      "name": "Plane"
    },
    {
      "mesh": 0,
      "name": "Plane_Federstiel_0"
    },
    {
      "mesh": 1,
      "name": "Plane_Feder Feder_0"
    },
    {
      "mesh": 2,
      "name": "Plane_Material.002_0"
    }
  ],
  "scene": 0,
  "scenes": [
    {
      "name": "Sketchfab_Scene",
      "nodes": [
        0
      ]
    }
  ]
}
